# xmcd
#
# Track frame offsets:
# 150
# 22497
# 41917
# 62530
# 85482
# 97235
# 129617
# 151747
# 170007
# 184620
# 202425
#
# Disc length: 3047 seconds
#
#
# Revision: 2
# Processed by: cddbd v1.5.2PL0 Copyright (c) Steve Scherf et al.
# Submitted via: FreeRIP 2.945 
#
DISCID=a60be50b
DTITLE=stéphane grappelli - it might as well be swing
DYEAR=1995
DGENRE=Jazz
TTITLE0=You Took Advantage Of Me
TTITLE1=Star Eyes
TTITLE2=Anything Goes
TTITLE3=Don´t Blame Me
TTITLE4=Moonlight In Vermont
TTITLE5=Caravan
TTITLE6=It Might As Well Be Spring
TTITLE7=Have You Met Miss Jones
TTITLE8=Love Song
TTITLE9=Sing Hallelujah
TTITLE10=I Didn´t Know What Time It Was
EXTD=YEAR: 1955
EXTT0=
EXTT1=
EXTT2=
EXTT3=
EXTT4=
EXTT5=
EXTT6=
EXTT7=
EXTT8=
EXTT9=
EXTT10=
PLAYORDER=
